:SAMPLES-PER-SECOND 30
:FRAME-RANGE 1-1700
:FULLY-SPECIFIED
:DEGREES
1063
root  -103.636 37.4959 -14.5063 1.8653 11.2541 2.62103
RightUpLeg  -28.9133 3.03742 -4.30721
RightLeg  28.4111 -1.09673 -0.883914
RightFoot  -2.12193 -0.318608 3.76979
RightToes  6.35937e-011 1.2921e-014 -6.02303e-014
Spine  7.90094 -3.3023 4.24535
Spine1  4.98441 -4.58907 5.92477
HEad  41.424 3.20964 -3.51532
LeftShoulder1  2.66773 -8.74845 -15.5907
LeftArm  19.0593 -28.4619 -70.2966
LeftForeArm  36.9848 -5.32615 -14.1725
LeftHand  0.0205483 6.89886 4.06371
RightShoulder  1.98623 3.50251 23.0251
RightArm  -9.08523 16.9347 48.6196
RightForeArm  64.6597 2.57959 11.7104
RightHand  0.214172 -6.98388 -16.7837
LeftUpLeg  -34.3393 -0.962666 -0.15593
LeftLeg  80.3159 -0.490898 -1.64263
LeftFoot  -9.00947 0.133904 -3.92438
LeftToes  -1.9349e-011 5.45182e-011 1.33515e-010
1064
root  -103.811 37.7124 -13.8269 2.07565 11.1587 2.94867
RightUpLeg  -27.7513 3.17569 -4.02524
RightLeg  28.0323 -1.2375 -0.954455
RightFoot  -2.93117 -0.24948 3.11989
RightToes  6.35937e-011 1.2921e-014 -6.02303e-014
Spine  9.58054 -2.74698 4.20675
Spine1  4.00498 -4.11064 6.09289
HEad  41.0788 1.83114 -3.5767
LeftShoulder1  2.65246 -9.0361 -14.8896
LeftArm  21.9314 -30.4966 -71.6518
LeftForeArm  35.7879 -6.6104 -13.9325
LeftHand  0.016973 6.78166 4.06133
RightShoulder  2.10965 4.0108 22.6754
RightArm  -9.43137 21.1882 49.6715
RightForeArm  65.2658 1.678 11.5634
RightHand  0.179785 -6.79384 -16.25
LeftUpLeg  -41.5948 -0.528788 -0.774887
LeftLeg  80.354 -0.390739 -0.905806
LeftFoot  -11.675 0.0607169 -3.18441
LeftToes  -1.9349e-011 5.45182e-011 1.33515e-010
1065
root  -103.985 37.9078 -13.1993 2.42535 11.096 3.30264
RightUpLeg  -26.7763 2.15496 -3.64656
RightLeg  27.5706 -0.475642 -0.508095
RightFoot  -3.63287 -0.182804 2.34532
RightToes  6.35937e-011 1.2921e-014 -6.02303e-014
Spine  10.8766 -2.24948 3.68634
Spine1  3.25411 -3.84146 6.63345
HEad  40.3856 0.46145 -3.56576
LeftShoulder1  2.63059 -9.44436 -13.944
LeftArm  22.9758 -33.0839 -73.1666
LeftForeArm  36.7946 -6.6859 -13.8817
LeftHand  0.0134419 6.94584 3.48518
RightShoulder  2.26824 4.63625 22.3963
RightArm  -9.24203 25.0207 50.7213
RightForeArm  64.6595 1.41832 11.5326
RightHand  0.170624 -6.68472 -16.7211
LeftUpLeg  -48.5935 0.743855 -2.02494
LeftLeg  79.2962 -0.304602 -0.228011
LeftFoot  -12.7675 0.0301469 -3.72467
LeftToes  -1.9349e-011 5.45182e-011 1.33515e-010
1066
root  -104.146 38.1159 -12.6418 2.29099 11.0243 3.94742
RightUpLeg  -25.2474 0.344156 -3.55088
RightLeg  26.9484 1.1144 0.37972
RightFoot  -4.18191 -0.114455 1.37443
RightToes  6.35937e-011 1.2921e-014 -6.02303e-014
Spine  12.5706 -1.76269 2.83525
Spine1  2.68627 -3.60164 7.2433
HEad  39.5274 -0.708514 -3.82928
LeftShoulder1  2.70974 -10.2653 -13.2087
LeftArm  22.2188 -36.0165 -74.4815
LeftForeArm  38.8881 -5.88016 -13.96
LeftHand  0.00744021 7.33893 2.61161
RightShoulder  2.397 5.23568 21.8765
RightArm  -9.25945 28.4899 51.9226
RightForeArm  63.7262 1.35292 11.3442
RightHand  0.142376 -6.46971 -16.9419
LeftUpLeg  -54.3519 3.02837 -4.71825
LeftLeg  77.6789 -0.121194 0.82209
LeftFoot  -13.3139 0.00842547 -4.14317
LeftToes  -1.9349e-011 5.45182e-011 1.33515e-010
1067
root  -104.307 38.3059 -12.1426 2.0477 11.0461 4.59039
RightUpLeg  -23.6688 -0.405897 -3.69264
RightLeg  26.2775 1.6759 0.667152
RightFoot  -4.65751 -0.0804956 0.836157
RightToes  6.35937e-011 1.2921e-014 -6.02303e-014
Spine  14.3468 -1.44495 1.81069
Spine1  2.05304 -3.55492 7.96587
HEad  38.779 -1.46863 -4.1608
LeftShoulder1  2.73398 -10.7333 -12.6626
LeftArm  22.638 -39.021 -75.8583
LeftForeArm  39.9099 -4.95186 -14.1931
LeftHand  0.00105827 7.61158 2.06998
RightShoulder  2.50055 5.75763 21.3776
RightArm  -9.3412 31.6962 53.5057
RightForeArm  63.056 1.14344 10.9953
RightHand  0.107304 -6.24635 -16.6109
LeftUpLeg  -59.7193 5.95019 -8.73076
LeftLeg  76.4799 0.103161 1.84124
LeftFoot  -13.1145 -0.00530428 -5.4153
LeftToes  -1.9349e-011 5.45182e-011 1.33515e-010
1068
root  -104.453 38.4636 -11.6617 1.93259 11.1071 5.02695
RightUpLeg  -22.391 -1.03989 -3.69756
RightLeg  25.7763 2.13737 0.892846
RightFoot  -5.09898 -0.0546675 0.367323
RightToes  6.35937e-011 1.2921e-014 -6.02303e-014
Spine  15.5989 -1.34912 1.24526
Spine1  1.59103 -3.64338 8.30081
HEad  38.3908 -1.96125 -4.32466
LeftShoulder1  2.71792 -11.1903 -11.8585
LeftArm  22.0672 -41.3499 -77.0673
LeftForeArm  42.3156 -4.23668 -14.1641
LeftHand  -0.0105622 7.9335 1.39882
RightShoulder  2.61934 6.20332 21.3365
RightArm  -9.20971 34.5383 55.2705
RightForeArm  62.8291 0.598227 10.6021
RightHand  0.0802339 -6.07305 -16.2438
LeftUpLeg  -65.0968 8.79298 -13.5943
LeftLeg  76.1317 0.0801454 1.67935
LeftFoot  -12.2747 0.015956 -7.05367
LeftToes  -1.9349e-011 5.45182e-011 1.33515e-010
1069
root  -104.579 38.5814 -11.1848 1.58652 11.3072 4.98343
RightUpLeg  -20.9336 -1.68395 -3.25852
RightLeg  25.256 2.48896 1.0504
RightFoot  -5.61583 -0.0267528 -0.227085
RightToes  6.35937e-011 1.2921e-014 -6.02303e-014
Spine  16.861 -1.27494 1.20404
Spine1  1.03392 -3.7441 8.89198
HEad  37.9056 -2.41316 -4.76084
LeftShoulder1  2.70547 -11.5697 -11.2335
LeftArm  22.0721 -43.4321 -78.5694
LeftForeArm  43.7899 -3.25451 -14.2655
LeftHand  -0.0254822 8.31982 0.903201
RightShoulder  2.69969 6.54824 21.1812
RightArm  -9.0384 36.6704 56.9184
RightForeArm  62.4584 0.176922 10.2174
RightHand  0.0709018 -6.00728 -16.2034
LeftUpLeg  -70.179 11.3905 -18.7522
LeftLeg  76.9656 -0.359585 -0.446396
LeftFoot  -10.9012 0.100129 -9.0825
LeftToes  -1.9349e-011 5.45182e-011 1.33515e-010
1070
root  -104.701 38.6646 -10.7007 1.22894 11.4765 4.72586
RightUpLeg  -19.5712 -2.09181 -2.6271
RightLeg  24.8725 2.64754 1.11006
RightFoot  -6.21942 -0.0142039 -0.625308
RightToes  6.35937e-011 1.2921e-014 -6.02303e-014
Spine  17.1693 -0.850823 0.946246
Spine1  1.58918 -3.83387 10.4037
HEad  36.8747 -3.15054 -5.54172
LeftShoulder1  2.72495 -12.1767 -10.5779
LeftArm  21.3585 -45.483 -80.5193
LeftForeArm  46.1236 -1.90056 -14.2332
LeftHand  -0.0376234 8.61594 0.626169
RightShoulder  2.67071 6.68838 20.4591
RightArm  -9.30664 38.2627 58.4702
RightForeArm  61.546 0.721557 9.66466
RightHand  0.0423044 -5.84498 -14.9542
LeftUpLeg  -75.2678 13.6102 -24.2256
LeftLeg  79.1815 -0.761199 -3.15775
LeftFoot  -9.27919 0.255283 -11.0767
LeftToes  -1.9349e-011 5.45182e-011 1.33515e-010
1071
root  -104.799 38.7208 -10.2385 0.721466 11.5868 4.27234
RightUpLeg  -18.1695 -2.86007 -1.84822
RightLeg  24.5772 3.21051 1.37428
RightFoot  -6.81293 -0.00580762 -1.02071
RightToes  6.35937e-011 1.2921e-014 -6.02303e-014
Spine  18.1851 -0.661245 1.34428
Spine1  1.191 -3.83436 11.1378
HEad  35.8715 -3.64588 -6.05868
LeftShoulder1  2.67931 -12.4554 -9.9075
LeftArm  20.9252 -46.7705 -82.3871
LeftForeArm  48.4115 -0.977405 -14.0903
LeftHand  -0.0535464 9.12496 -0.108249
RightShoulder  2.67828 6.72037 20.4489
RightArm  -9.4513 38.952 59.6429
RightForeArm  61.3168 1.43859 9.35878
RightHand  0.0423159 -5.82343 -15.5203
LeftUpLeg  -79.9472 15.1246 -29.4321
LeftLeg  82.3274 -0.852416 -5.85282
LeftFoot  -7.80952 0.439589 -12.7036
LeftToes  -1.9349e-011 5.45182e-011 1.33515e-010
1072
root  -104.901 38.7431 -9.78424 0.181366 11.2983 3.75955
RightUpLeg  -16.8882 -3.41979 -0.993094
RightLeg  24.4283 3.90859 1.70996
RightFoot  -7.46019 0.00239288 -1.56138
RightToes  6.35937e-011 1.2921e-014 -6.02303e-014
Spine  19.1339 -0.348437 1.63502
Spine1  0.879489 -3.71097 11.8864
HEad  34.9372 -3.88141 -6.3545
LeftShoulder1  2.66045 -12.4469 -9.78438
LeftArm  21.1757 -47.8874 -83.925
LeftForeArm  48.9957 0.551193 -14.1772
LeftHand  -0.0538201 9.58487 -0.0371588
RightShoulder  2.74947 6.87103 20.7772
RightArm  -9.22558 39.2733 60.1859
RightForeArm  60.0762 2.53948 9.52331
RightHand  0.006683 -5.55147 -15.5587
LeftUpLeg  -84.0548 16.3561 -33.7994
LeftLeg  85.8426 -0.65548 -10.173
LeftFoot  -6.93873 0.647167 -15.6769
LeftToes  -1.9349e-011 5.45182e-011 1.33515e-010
1073
root  -105.028 38.7441 -9.33385 -0.576294 10.7182 3.14151
RightUpLeg  -15.4199 -3.14547 0.0158619
RightLeg  24.2585 4.0673 1.7734
RightFoot  -8.13229 0.00198841 -2.03536
RightToes  6.35937e-011 1.2921e-014 -6.02303e-014
Spine  20.0642 0.0192439 1.77576
Spine1  0.870978 -3.59109 12.6593
HEad  34.1101 -3.60323 -6.44076
LeftShoulder1  2.55135 -12.5001 -8.95023
LeftArm  19.433 -48.2931 -85.4146
LeftForeArm  50.961 2.44676 -13.7997
LeftHand  -0.0719249 10.1648 -0.378417
RightShoulder  2.86987 7.2012 21.099
RightArm  -7.88604 39.8785 60.7639
RightForeArm  59.8283 2.63448 10.1667
RightHand  0.0184975 -5.62126 -16.4237
LeftUpLeg  -87.5226 17.5612 -37.1263
LeftLeg  89.5841 0.145801 -14.6428
LeftFoot  -6.41569 0.829062 -18.2525
LeftToes  -1.9349e-011 5.45182e-011 1.33515e-010
1074
root  -105.148 38.6792 -8.93399 -1.36972 9.59674 2.34155
RightUpLeg  -14.309 -2.66003 1.24395
RightLeg  24.5948 4.44734 1.99122
RightFoot  -8.881 -0.00316307 -2.64907
RightToes  6.35937e-011 1.2921e-014 -6.02303e-014
Spine  21.5375 0.391273 2.22261
Spine1  0.164638 -3.25816 12.9706
HEad  33.3202 -2.96669 -6.35743
LeftShoulder1  2.49566 -12.5097 -8.5455
LeftArm  18.2349 -48.0832 -85.9334
LeftForeArm  52.7115 4.04617 -13.5076
LeftHand  -0.0898014 10.7473 -0.641604
RightShoulder  3.03141 7.61402 21.5807
RightArm  -6.12867 40.8504 62.1767
RightForeArm  63.2811 0.862136 10.5597
RightHand  0.0522988 -5.84033 -17.075
LeftUpLeg  -90.597 18.5888 -39.5274
LeftLeg  93.4639 1.36126 -16.5715
LeftFoot  -7.28072 0.773607 -20.4079
LeftToes  -1.9349e-011 5.45182e-011 1.33515e-010
1075
root  -105.263 38.6112 -8.59957 -2.16718 8.49175 1.43048
RightUpLeg  -13.1554 -2.80323 2.54384
RightLeg  24.7219 5.32378 2.44229
RightFoot  -9.45133 -0.00850295 -3.35605
RightToes  6.35937e-011 1.2921e-014 -6.02303e-014
Spine  22.4434 0.669796 2.74071
Spine1  0.697398 -3.03019 13.1861
HEad  32.2169 -2.4545 -6.18027
LeftShoulder1  2.42215 -12.4263 -8.11648
LeftArm  19.8559 -48.4806 -87.2907
LeftForeArm  54.0115 6.31664 -13.6871
LeftHand  -0.0959447 11.2645 -0.648001
RightShoulder  3.22274 8.44219 21.2348
RightArm  -4.55742 41.719 64.4033
RightForeArm  64.9736 -1.50909 10.6939
RightHand  0.0754349 -5.99972 -17.0711
LeftUpLeg  -93.0433 19.3172 -40.9183
LeftLeg  97.0963 2.52594 -16.9637
LeftFoot  -7.62857 0.681354 -19.4557
LeftToes  -1.9349e-011 5.45182e-011 1.33515e-010
